<svg xmlns="http://www.w3.org/2000/svg" viewBox="0 0 64 64">
  <rect width="64" height="64" rx="14" fill="#0d1826"/>
  <rect x="1.5" y="1.5" width="61" height="61" rx="12.5" fill="none" stroke="#c9a04a" stroke-opacity="0.35" stroke-width="1.5"/>
  <g transform="translate(9.6,18.8) scale(0.448)" fill="#c9a04a">
    <path d="M50 60 C50 60 50 34 50 20 C50 8 42 2 42 2 C42 2 46 14 46 24 C46 34 50 42 50 42 C50 42 54 34 54 24 C54 14 58 2 58 2 C58 2 50 8 50 20 Z"/>
    <path d="M50 42 C50 42 33 40 22 30 C13 22 10 8 10 8 C10 8 20 12 28 22 C36 32 46 40 50 42 Z"/>
    <path d="M50 42 C50 42 67 40 78 30 C87 22 90 8 90 8 C90 8 80 12 72 22 C64 32 54 40 50 42 Z"/>
    <path d="M50 42 C50 42 38 46 26 44 C16 42 6 34 6 34 C6 34 16 32 26 34 C38 37 48 41 50 42 Z"/>
    <path d="M50 42 C50 42 62 46 74 44 C84 42 94 34 94 34 C94 34 84 32 74 34 C62 37 52 41 50 42 Z"/>
  </g>
</svg>
